<?xml version="1.0" encoding="UTF-8"?>
<svg width="1200pt" height="1200pt" version="1.1" viewBox="0 0 1200 1200" xmlns="http://www.w3.org/2000/svg">
 <path d="m1145.2 170.61v-91.91c0-22.406-18.113-37.914-40.258-34.461l-674.38 105.02c-22.145 3.4492-40.258 24.602-40.258 47.008v159.47l0.003906 459.34c-31.727-7.332-67.781-8.6641-106.03-2.6992-126.75 19.742-229.5 111.88-229.5 205.8 0 93.938 102.75 154.07 229.5 134.32 126.75-19.742 229.5-111.88 229.5-205.82v-610.16l507.98-79.105v459.34c-31.727-7.332-67.781-8.6641-106.03-2.6992-126.75 19.742-229.5 111.88-229.5 205.82 0 93.918 102.75 154.07 229.5 134.32 126.75-19.742 229.5-111.88 229.5-205.82z"/>
</svg>
