<?xml version="1.0" encoding="UTF-8"?>
<svg width="1200pt" height="1200pt" version="1.1" viewBox="0 0 1200 1200" xmlns="http://www.w3.org/2000/svg">
 <g>
  <path d="m412.91 599.81c3.75 119.04 176.44 118.84 180.19 0-3.7695-118.86-176.52-119.01-180.19 0zm124.5 0c0 12.324-6.5781 23.715-17.25 29.879-10.676 6.1602-23.828 6.1602-34.5 0-10.676-6.1641-17.25-17.555-17.25-29.879s6.5742-23.715 17.25-29.879c10.672-6.1602 23.824-6.1602 34.5 0 10.672 6.1641 17.25 17.555 17.25 29.879z"/>
  <path d="m754.16 795.19h8.625v-78.375c-4.543 1.6875-9.5625 1.5469-14.004-0.38281-4.4453-1.9336-7.9688-5.5117-9.832-9.9844-1.8633-4.4727-1.9219-9.4922-0.16406-14.008 24.223-61.914 23.176-130.86-2.9102-192.02-26.09-61.148-75.137-109.62-136.59-134.98-6.1992-2.5469-10.566-8.2031-11.461-14.844-0.89062-6.6367 1.8242-13.25 7.125-17.344 5.3047-4.0938 12.387-5.0469 18.586-2.5 47.75 19.5 89.422 51.406 120.71 92.414 31.281 41.008 51.039 89.629 57.23 140.84 22.949-30.676 66-40.648 102.19-48.75-112.26-462.54-777.32-394.88-790.31 84.562-5.3047 275.36 289.71 476.25 543.75 372.94-19.383-37.562-17.895-82.488 3.9297-118.69 21.828-36.195 60.863-58.484 103.13-58.875zm-123.56-195.38c-0.082031 33.824-13.566 66.234-37.5 90.133-23.934 23.902-56.367 37.336-90.188 37.367-168.92-6.3945-168.86-248.62 0-255 33.82 0.03125 66.254 13.465 90.188 37.367 23.934 23.898 37.418 56.309 37.5 90.133zm-285.94-243.94c5.5742-3.0625 12.32-3.0898 17.922-0.074219 5.5977 3.0195 9.2852 8.668 9.793 15.008 0.51172 6.3438-2.2305 12.508-7.2773 16.379-39.824 26.168-71.508 62.984-91.449 106.26-19.941 43.277-27.34 91.285-21.355 138.56 5.9805 47.273 25.109 91.922 55.203 128.87 4.2891 5.1914 5.4805 12.277 3.125 18.586-2.3516 6.3086-7.8906 10.883-14.531 12-6.6367 1.1172-13.367-1.3945-17.656-6.5859-34.844-42.297-57.031-93.578-64.008-147.93-6.9766-54.355 1.543-109.58 24.578-159.3 23.035-49.723 59.645-91.934 105.62-121.76zm0.75 321.38c2.3945 4.4727 2.8789 9.7227 1.3398 14.555-1.543 4.8359-4.9766 8.8359-9.5195 11.098-4.5391 2.2578-9.8047 2.5781-14.59 0.89062-4.7812-1.6914-8.6758-5.2461-10.793-9.8555-16.539-33.746-23.898-71.25-21.328-108.74 2.5664-37.492 14.969-73.645 35.953-104.82 3.7852-5.5586 10.246-8.6797 16.953-8.1797 6.707 0.49609 12.641 4.5352 15.562 10.594 2.9219 6.0586 2.3945 13.215-1.3906 18.773-17.305 25.625-27.543 55.363-29.68 86.207-2.1406 30.848 3.8906 61.711 17.492 89.48zm278.25-204.75c-4.8594-4.6211-6.8789-11.484-5.3047-18 1.5742-6.5195 6.5039-11.699 12.938-13.594 6.4297-1.8945 13.383-0.21484 18.242 4.4062 21.688 20.453 38.812 45.258 50.25 72.785 11.438 27.531 16.934 57.164 16.125 86.965-0.16797 6.6992-3.8984 12.801-9.7812 16.004-5.8867 3.2031-13.035 3.0234-18.75-0.46875-5.7188-3.4961-9.1367-9.7734-8.9688-16.473 0.64844-24.559-3.8906-48.977-13.324-71.656-9.4375-22.684-23.551-43.117-41.426-59.969z"/>
  <path d="m1065.6 543.56c-19.961-15.539-45.973-21.004-70.5-14.812l-95.438 23.812-36.75 9.1875c-17.879 4.3047-33.785 14.512-45.148 28.973-11.363 14.457-17.52 32.324-17.477 50.715v191.25h-37.5c-22.617-2.4062-45.242 4.4766-62.684 19.074-17.445 14.594-28.215 35.645-29.84 58.332-1.625 22.684 6.0312 45.059 21.219 61.988 15.184 16.934 36.594 26.973 59.324 27.816 22.727 0.84375 44.824-7.582 61.223-23.34 16.398-15.758 25.695-37.504 25.758-60.246v-46.125-228.75c0.054688-9.9336 3.3984-19.566 9.5-27.402 6.1055-7.832 14.633-13.426 24.25-15.91l132.75-33.188c13.297-3.1328 27.301-0.050781 38.059 8.3711 10.758 8.4258 17.105 21.277 17.254 34.941v159.56h-37.5c-23.535-2.1016-46.879 5.7422-64.367 21.629-17.488 15.887-27.535 38.367-27.695 61.996 0 29.844 15.918 57.418 41.766 72.34 25.844 14.922 57.684 14.922 83.531 0 25.844-14.922 41.766-42.496 41.766-72.34v-64.875-178.31c0.054688-25.27-11.574-49.148-31.5-64.688z"/>
  <path d="m875.29 641.44v103.69c14.508-37.016 23.297-76.027 26.062-115.69-10.613 3.4883-26.438 3.2422-26.062 12z"/>
 </g>
</svg>
