<?xml version="1.0" encoding="UTF-8"?>
<svg width="1200pt" height="1200pt" version="1.1" viewBox="0 0 1200 1200" xmlns="http://www.w3.org/2000/svg">
 <path d="m747.86 355.57 20.777 77.969h65.645c20.801 0 37.781 16.992 37.781 37.805v362.91c0 20.812-16.98 37.805-37.781 37.805h-362.69c-20.801 0-37.781-16.992-37.781-37.805-5.6016-3.4258-9.9023-13.285-11.805-20.082l-92.797-346.38c-5.332-19.91 6.7852-40.738 26.684-46.074l345.93-92.855c22.082-4.5742 40.496 8.4336 46.043 26.699zm86.422 93.09h-362.69c-12.688 0-22.668 9.9844-22.668 22.684v246.43l100.36-100.42c5.6836-5.6875 13.336-8.5625 20.777-8.5039 7.1641 0.074219 14.211 2.9688 19.598 8.0352 28.5 23.5 57.027 47.406 85.477 71.117l25.266-25.281c5.6836-5.6875 13.336-8.5625 20.777-8.5078 7.2305 0.074218 14.43 2.8789 19.836 8.0352 38.551 34.117 77.293 68.223 115.94 102.3v-293.21c0-12.695-9.9805-22.684-22.668-22.684zm-90.672 45.602c24.949 0 45.336 20.398 45.336 45.363s-20.387 45.363-45.336 45.363-45.336-20.398-45.336-45.363 20.387-45.363 45.336-45.363zm-183.47 133.73-111.21 111.29v94.98c0 12.695 9.9805 22.684 22.668 22.684h362.69c12.688 0 22.668-9.9844 22.668-22.684v-49.617c-42.172-36.996-84.035-74.531-126.33-111.29-4.2031-4.207-14.723-4.6406-19.363 0l-120.9 120.97-10.863-10.633 85.004-85.059c-28.359-23.48-56.594-47.344-85.004-70.645-7.457-4.6914-13.625-4.7148-19.363 0z"/>
</svg>
