<?xml version="1.0" encoding="UTF-8"?>
<svg width="1200pt" height="1200pt" version="1.1" viewBox="0 0 1200 1200" xmlns="http://www.w3.org/2000/svg">
 <g>
  <path d="m1068.8 187.5h-1050c-4.9727 0-9.7422 1.9766-13.258 5.4922-3.5156 3.5156-5.4922 8.2852-5.4922 13.258v862.5c0 4.9727 1.9766 9.7422 5.4922 13.258 3.5156 3.5156 8.2852 5.4922 13.258 5.4922h1050c4.9727 0 9.7422-1.9766 13.258-5.4922 3.5156-3.5156 5.4922-8.2852 5.4922-13.258v-862.5c0-4.9727-1.9766-9.7422-5.4922-13.258-3.5156-3.5156-8.2852-5.4922-13.258-5.4922zm-18.75 862.5h-1012.5v-825h1012.5z"/>
  <path d="m1181.2 75h-1050c-4.9727 0-9.7422 1.9766-13.258 5.4922-3.5156 3.5156-5.4922 8.2852-5.4922 13.258v56.25h37.5v-37.5h1012.5v843.75h-37.5v37.5h56.25c4.9727 0 9.7422-1.9766 13.258-5.4922 3.5156-3.5156 5.4922-8.2852 5.4922-13.258v-881.25c0-4.9727-1.9766-9.7422-5.4922-13.258-3.5156-3.5156-8.2852-5.4922-13.258-5.4922z"/>
  <path d="m112.5 843.75h825c4.9727 0 9.7422-1.9766 13.258-5.4922 3.5156-3.5156 5.4922-8.2852 5.4922-13.258v-525c0-4.9727-1.9766-9.7422-5.4922-13.258-3.5156-3.5156-8.2852-5.4922-13.258-5.4922h-825c-4.9727 0-9.7422 1.9766-13.258 5.4922-3.5156 3.5156-5.4922 8.2852-5.4922 13.258v525c0 4.9727 1.9766 9.7422 5.4922 13.258 3.5156 3.5156 8.2852 5.4922 13.258 5.4922zm806.25-37.5h-236.06l-131.25-131.25 123.56-123.56 243.75 243.75zm-787.5-487.5h787.5v423.56l-230.44-230.62c-3.5117-3.4922-8.2656-5.4531-13.219-5.4531s-9.707 1.9609-13.219 5.4531l-136.88 136.88-135.94-135.94c-3.5117-3.4922-8.2656-5.4531-13.219-5.4531s-9.707 1.9609-13.219 5.4531l-231.38 231.19zm0 477.94 243.75-243.75 254.81 253.31h-498.56z"/>
  <path d="m525 543.75c24.863 0 48.711-9.8789 66.293-27.457 17.578-17.582 27.457-41.43 27.457-66.293s-9.8789-48.711-27.457-66.293c-17.582-17.578-41.43-27.457-66.293-27.457s-48.711 9.8789-66.293 27.457c-17.578 17.582-27.457 41.43-27.457 66.293s9.8789 48.711 27.457 66.293c17.582 17.578 41.43 27.457 66.293 27.457zm0-150c14.918 0 29.227 5.9258 39.773 16.477 10.551 10.547 16.477 24.855 16.477 39.773s-5.9258 29.227-16.477 39.773c-10.547 10.551-24.855 16.477-39.773 16.477s-29.227-5.9258-39.773-16.477c-10.551-10.547-16.477-24.855-16.477-39.773s5.9258-29.227 16.477-39.773c10.547-10.551 24.855-16.477 39.773-16.477z"/>
  <path d="m112.5 1012.5h112.5c4.9727 0 9.7422-1.9766 13.258-5.4922 3.5156-3.5156 5.4922-8.2852 5.4922-13.258v-75c0-4.9727-1.9766-9.7422-5.4922-13.258-3.5156-3.5156-8.2852-5.4922-13.258-5.4922h-112.5c-4.9727 0-9.7422 1.9766-13.258 5.4922-3.5156 3.5156-5.4922 8.2852-5.4922 13.258v75c0 4.9727 1.9766 9.7422 5.4922 13.258 3.5156 3.5156 8.2852 5.4922 13.258 5.4922zm18.75-75h75v37.5h-75z"/>
  <path d="m281.25 900h37.5v37.5h-37.5z"/>
  <path d="m356.25 900h37.5v37.5h-37.5z"/>
  <path d="m281.25 975h225v37.5h-225z"/>
 </g>
</svg>
